<svg width="16" height="16" viewBox="0 0 16 16" fill="none" xmlns="http://www.w3.org/2000/svg">
<rect width="16" height="16" fill="black"/>
<path d="M7.51606 8.671C7.60272 8.83567 7.68506 9.00683 7.76306 9.1845C7.84539 9.36217 7.92339 9.54417 7.99706 9.7305C8.07072 9.53983 8.14872 9.35567 8.23105 9.178C8.31339 8.996 8.39789 8.8205 8.48456 8.6515L10.9156 3.8675C10.9589 3.78517 11.0022 3.72233 11.0456 3.679C11.0932 3.63133 11.1452 3.59667 11.2016 3.575C11.2579 3.55333 11.3207 3.54033 11.3901 3.536C11.4637 3.53167 11.5482 3.5295 11.6436 3.5295H13.3206V13H11.3836V7.553C11.3836 7.28867 11.3966 7.00267 11.4226 6.695L8.91355 11.5635C8.83555 11.7152 8.72939 11.83 8.59505 11.908C8.46505 11.986 8.31556 12.025 8.14656 12.025H7.84756C7.67855 12.025 7.52689 11.986 7.39255 11.908C7.26255 11.83 7.15855 11.7152 7.08055 11.5635L4.55855 6.6885C4.57589 6.84017 4.58889 6.99183 4.59755 7.1435C4.60622 7.29083 4.61055 7.42733 4.61055 7.553V13H2.67355V3.5295H4.35055C4.44589 3.5295 4.52822 3.53167 4.59755 3.536C4.67122 3.54033 4.73622 3.55333 4.79255 3.575C4.84889 3.59667 4.89872 3.63133 4.94205 3.679C4.98972 3.72233 5.03522 3.78517 5.07855 3.8675L7.51606 8.671Z" fill="white"/>
</svg>
